# xmcd
#
# Track frame offsets:
# 150
# 15902
# 44129
# 47798
#
# Disc length: 946 seconds
#
#
# Revision: 0
# Processed by: cddbd v1.5.2PL0 Copyright (c) Steve Scherf et al.
# Submitted via: FreeRIP 2.943 
#
DISCID=2c03b004
DTITLE=illogo - isteresi
DYEAR=2004
DGENRE=Black Metal-Experimental
TTITLE0=zymotic zinc grapes
TTITLE1=gravita
TTITLE2=impulso
TTITLE3=isteresi
EXTD=z
EXTT0=
EXTT1=
EXTT2=
EXTT3=
PLAYORDER=
